<svg xmlns="http://www.w3.org/2000/svg" viewBox="0 0 64 64" id="brain"><g fill="#222"><path d="M37.171 49.7a12.53 12.53 0 0 1-2.98-.361c-3.651-.9-5.129-2.6-5.719-3.7-2.341.477-8.611 1.2-11.216-4.012a5.639 5.639 0 0 1 1.026-6.993 7.441 7.441 0 0 1 5.259-2.047 6.483 6.483 0 0 1 3.342-3.166c1.826-.682 3.92-.332 6.224 1.039a1 1 0 0 1-1.022 1.719c-1.752-1.043-3.263-1.344-4.489-.889a4.925 4.925 0 0 0-2.535 2.793 1 1 0 0 1-1.441.554c-.437-.246-2.5.057-3.96 1.447a3.622 3.622 0 0 0-.615 4.648c2.416 4.835 9.682 2.794 9.756 2.774a1 1 0 0 1 1.269.819c.013.058.456 2.049 4.6 3.069 3.213.792 6.235-.065 7.3-1.35a1.882 1.882 0 0 0 .191-2.153 1 1 0 1 1 1.817-.836 3.859 3.859 0 0 1-.466 4.263c-1.256 1.517-3.686 2.382-6.341 2.382Z"></path><path d="M15.948 40.5a10.5 10.5 0 0 1-6.257-1.923c-2.27-1.693-3.616-4.384-4-8-.637-5.986 4.075-8.694 7.141-9.443.476-1.553 2.072-5.317 6.477-5.945a15.134 15.134 0 0 1 7.821.872c1.252-1.524 3.985-3.277 8.227-2.229 4.158 1.025 5.779 2.71 6.4 3.765 2.32-.271 8.871-.353 11.345 6.656 1.634 4.629-.642 6.468-1.7 7.045-2.718 1.485-6.873.41-8.367-1.513-2.59-3.328-.839-5.642-.763-5.739a1 1 0 1 1 1.574 1.233c-.019.03-.826 1.231.767 3.278.952 1.225 4.067 1.948 5.83.986 1.664-.909 1.336-3.017.769-4.624-2.414-6.839-9.539-5.311-9.839-5.244a1 1 0 0 1-1.207-.795s-.589-1.946-5.3-3.107-6.452 1.9-6.524 2.027a1.006 1.006 0 0 1-1.376.393 12.694 12.694 0 0 0-7.388-1.025c-4.033.576-4.932 4.832-4.969 5.012a1 1 0 0 1-.815.793c-.275.048-6.781 1.247-6.127 7.393C8 33.4 9.076 35.62 10.873 36.967a9.187 9.187 0 0 0 6.435 1.439 1 1 0 0 1 .362 1.968 10.334 10.334 0 0 1-1.722.126Z"></path><path d="M52.548 44.244h-.021a1 1 0 0 1-.978-1.021.98.98 0 0 1 1.021-.978c.09 0 2.665-.107 3.658-5.008 1.033-5.1-4.108-7.991-4.161-8.019a1 1 0 0 1 .963-1.754c2.246 1.233 6.215 4.944 5.158 10.17-1.307 6.457-5.274 6.61-5.64 6.61Z"></path><path d="M46.748 50.481a14.274 14.274 0 0 1-6.127-1.724 1 1 0 0 1 .98-1.744c.039.022 3.976 2.2 6.719 1.224a3.579 3.579 0 0 0 2.149-2.229 6.451 6.451 0 0 0-.3-6.072 7.473 7.473 0 0 0-6.009-3.145 1 1 0 1 1 .1-2 9.47 9.47 0 0 1 7.591 4.062 8.476 8.476 0 0 1 .473 7.892 5.544 5.544 0 0 1-3.345 3.377 6.68 6.68 0 0 1-2.231.359zM30.446 25.594a1 1 0 0 1-.275-1.962 2.012 2.012 0 0 0 1.474-1.209 3.029 3.029 0 0 0-.559-2.61 1 1 0 1 1 1.644-1.139 4.963 4.963 0 0 1 .8 4.422 4 4 0 0 1-2.806 2.459.974.974 0 0 1-.278.039z"></path><path d="M37.793 31.085a1 1 0 0 1-1-.968c-.2-6.128-4.068-6.472-4.233-6.484a1 1 0 0 1-.933-1.059.994.994 0 0 1 1.045-.938c.058 0 5.863.393 6.119 8.417a1 1 0 0 1-.967 1.031zM30.99 42.1a1 1 0 0 1-.826-1.562 3.106 3.106 0 0 0 .7-2.5 2.589 2.589 0 0 0-1.5-1.3 1 1 0 0 1 .59-1.912 4.575 4.575 0 0 1 2.8 2.547 4.746 4.746 0 0 1-.931 4.283 1 1 0 0 1-.833.444z"></path><path d="M39.321 42.1a1 1 0 0 1-.967-.749 3.835 3.835 0 0 0-1.909-2.711c-1.75-.829-4.055.221-4.078.232a1 1 0 0 1-.849-1.811c.128-.061 3.163-1.458 5.769-.236a5.716 5.716 0 0 1 3 4.023 1 1 0 0 1-.969 1.252zm-27.306-9.248a.978.978 0 0 1-.406-.088 1 1 0 0 1-.507-1.312 4.487 4.487 0 0 1 2.862-2.463c1.339-.281 2.756.258 4.2 1.6a1 1 0 0 1-1.358 1.469 3.193 3.193 0 0 0-2.43-1.109 2.443 2.443 0 0 0-1.45 1.319 1.006 1.006 0 0 1-.911.584zm11.638-6.417a1 1 0 0 1-.482-.124 4.543 4.543 0 0 1-2.5-3.034 5.018 5.018 0 0 1 .969-3.734 1 1 0 0 1 1.575 1.231 3.005 3.005 0 0 0-.582 2.114 2.676 2.676 0 0 0 1.5 1.671 1 1 0 0 1-.483 1.876z"></path><path d="M14.753 30.917h-.028a1 1 0 0 1-.972-1.022 8.143 8.143 0 0 1 7.8-8.095 1 1 0 0 1 .125 2c-5.682.356-5.92 5.914-5.927 6.151a1 1 0 0 1-.998.966Z"></path></g></svg>