<svg width="28" height="28" viewBox="0 0 28 28" fill="none" xmlns="http://www.w3.org/2000/svg">
<path d="M19.434 0.666672H23.9486C25.8183 0.666672 27.3333 2.19447 27.3333 4.07996V8.6327C27.3333 10.5182 25.8183 12.046 23.9486 12.046H19.434C17.5643 12.046 16.0493 10.5182 16.0493 8.6327V4.07996C16.0493 2.19447 17.5643 0.666672 19.434 0.666672Z" fill="#80A9DA"/>
<path fill-rule="evenodd" clip-rule="evenodd" d="M4.05133 0.666672H8.56595C10.4356 0.666672 11.9506 2.19447 11.9506 4.07996V8.6327C11.9506 10.5182 10.4356 12.046 8.56595 12.046H4.05133C2.18163 12.046 0.666626 10.5182 0.666626 8.6327V4.07996C0.666626 2.19447 2.18163 0.666672 4.05133 0.666672ZM4.05133 15.954H8.56595C10.4356 15.954 11.9506 17.4818 11.9506 19.3673V23.9201C11.9506 25.8043 10.4356 27.3333 8.56595 27.3333H4.05133C2.18163 27.3333 0.666626 25.8043 0.666626 23.9201V19.3673C0.666626 17.4818 2.18163 15.954 4.05133 15.954ZM23.9486 15.954H19.434C17.5643 15.954 16.0493 17.4818 16.0493 19.3673V23.9201C16.0493 25.8043 17.5643 27.3333 19.434 27.3333H23.9486C25.8183 27.3333 27.3333 25.8043 27.3333 23.9201V19.3673C27.3333 17.4818 25.8183 15.954 23.9486 15.954Z" fill="#003366"/>
</svg>
