<svg xmlns="http://www.w3.org/2000/svg" fill-rule="evenodd" stroke-linejoin="round" stroke-miterlimit="2" clip-rule="evenodd" viewBox="0 0 134 134" id="donation"><path d="M81.009,18.287c-6.408,3.732 -18.213,10.735 -27.007,16.693c-6.059,4.106 -10.697,7.935 -11.98,10.017c-3.218,5.224 -12.107,24.115 -12.802,32.918c-0.338,4.276 1.28,6.999 3.386,8.117c2.571,1.365 4.879,1.716 7.068,1.315c1.554,-0.284 3.097,-0.973 4.649,-2.168c1.426,2.538 3.368,4.748 5.683,6.488l-33.339,-0c-2.302,-0 -4.167,1.865 -4.167,4.166l0,20.834c0,3.315 1.317,6.494 3.661,8.839c2.344,2.344 5.524,3.661 8.839,3.661c17.432,-0 57.568,-0 75,-0c3.315,-0 6.495,-1.317 8.839,-3.661c2.344,-2.345 3.661,-5.524 3.661,-8.839l0,-20.834c0,-2.301 -1.865,-4.166 -4.167,-4.166l-33.337,-0c5.061,-3.803 8.337,-9.855 8.337,-16.667c0,-3.479 -0.854,-6.76 -2.364,-9.644c0.805,-0.127 1.622,-0.279 2.449,-0.474c6.009,-1.418 11.534,-6.233 15.843,-11.711c3.036,-3.86 5.482,-7.986 7.143,-11.083c1.445,0.547 3.132,0.261 4.325,-0.857l8.787,-8.234c0.84,-0.787 1.317,-1.888 1.317,-3.04c0,-1.152 -0.477,-2.253 -1.317,-3.04l-23.076,-21.624c-1.603,-1.502 -4.096,-1.502 -5.699,-0l-8.786,8.233c-0.841,0.788 -1.318,1.889 -1.318,3.041c0,0.6 0.13,1.185 0.372,1.72Zm-43.509,81.713l-16.667,-0c0,-0 0,16.666 0,16.667c0,1.105 0.439,2.165 1.221,2.946c0.781,0.781 1.841,1.22 2.946,1.22l75,0c1.105,0 2.165,-0.439 2.946,-1.22c0.782,-0.781 1.221,-1.841 1.221,-2.946l-0,-16.667l-16.667,-0l0,2.047c-0,2.772 -1.101,5.431 -3.062,7.391c-1.96,1.961 -4.619,3.062 -7.391,3.062c-7.86,0 -21.234,0 -29.094,-0c-2.772,0 -5.431,-1.101 -7.391,-3.062c-1.961,-1.96 -3.062,-4.619 -3.062,-7.391l0,-2.047Zm8.333,-0l33.334,-0l-0,2.047c-0,0.562 -0.224,1.101 -0.621,1.499c-0.398,0.397 -0.937,0.621 -1.499,0.621l-29.094,-0c-0.562,-0 -1.101,-0.224 -1.499,-0.621c-0.397,-0.398 -0.621,-0.937 -0.621,-1.499l0,-2.047Zm26.353,-32.897c-0.608,0.361 -1.165,0.855 -1.652,1.55c-3.435,4.899 -7.831,7.596 -10.875,8.69c-1.944,0.698 -3.555,0.782 -4.52,0.631c-1.52,-0.237 -2.781,-0.731 -3.807,-1.411c-0.327,0.511 -0.647,1.002 -0.961,1.474c1.357,5.434 6.277,9.463 12.129,9.463c6.899,0 12.5,-5.601 12.5,-12.5c0,-2.994 -1.056,-5.743 -2.814,-7.897Zm14.887,-42.7c-5.585,3.227 -18.812,10.982 -28.396,17.476c-4.712,3.193 -8.563,5.87 -9.56,7.49c-2.541,4.124 -9.084,17.658 -11.098,26.299c-0.276,1.188 -0.519,3.326 0.154,3.482c1.249,0.291 2.211,-1.497 3.565,-3.264c2.172,-2.837 4.618,-6.93 7.762,-12.285c0.155,-0.288 4.626,-7.898 7.103,-11.997c1.103,-1.824 3.188,-3.53 5.705,-4.844c2.959,-1.545 6.494,-2.63 8.611,-3.161c2.23,-0.56 4.496,0.796 5.056,3.026c0.56,2.231 -0.796,4.496 -3.027,5.056c-1.665,0.418 -4.454,1.25 -6.783,2.466c-1.01,0.528 -1.987,1.036 -2.43,1.768c-2.403,3.975 -6.55,11.044 -6.64,11.191c-0.488,0.792 -0.826,1.543 -0.941,2.238c-0.015,0.092 -0.02,0.22 -0.021,0.325l0.016,0.004c0.714,-0.31 5.127,-2.331 7.562,-5.804c2.5,-3.566 5.645,-5.039 9.288,-5.786c2.58,-0.529 5.477,-0.597 8.506,-1.312c4.337,-1.023 8.096,-4.798 11.206,-8.752c3.311,-4.211 5.831,-8.777 7.232,-11.556l-12.87,-12.06Zm20.808,8.077l2.692,-2.523l-16.982,-15.914c-0,0 -2.693,2.524 -2.693,2.524l16.905,15.841c0.026,0.024 0.052,0.048 0.078,0.072Z"></path></svg>