<?xml version="1.0" encoding="UTF-8"?>
<!DOCTYPE svg PUBLIC "-//W3C//DTD SVG 1.1//EN" "http://www.w3.org/Graphics/SVG/1.1/DTD/svg11.dtd">
<!-- Creator: CorelDRAW -->
<svg xmlns="http://www.w3.org/2000/svg" xml:space="preserve" width="512px" height="512px" style="shape-rendering:geometricPrecision; text-rendering:geometricPrecision; image-rendering:optimizeQuality; fill-rule:evenodd; clip-rule:evenodd"
viewBox="0 0 512 512"
 xmlns:xlink="http://www.w3.org/1999/xlink">
 <defs>
  <style type="text/css">
   <![CDATA[
    .fil2 {fill:#F9F9F9}
    .fil0 {fill:#52ABB3}
    .fil1 {fill:#AADDE3}
   ]]>
  </style>
 </defs>
 <g id="Layer_x0020_1">
  <metadata id="CorelCorpID_0Corel-Layer"/>
  <path class="fil0" d="M300.704 111.087c-8.17089,-39.1442 -20.1095,-35.7816 -46.3702,-25.2887 -17.2288,6.88349 -36.7537,14.6871 -56.3766,4.71852 -5.43663,-2.76024 -18.7642,-17.693 -35.2418,-12.8705 -14.7544,4.32049 -24.1513,23.9847 -26.9717,32.3836l0 70.8215c0,35.7438 29.1922,63.7514 63.7514,63.7514l37.4576 0c34.6099,0 63.7514,-28.0725 63.7514,-63.7514l0 -69.7644zm-178.955 -2.04804l0 -31.1942c0,-42.8694 34.8769,-77.7463 77.7463,-77.7463l37.4576 0c42.8706,0 77.7463,34.8781 77.7463,77.7463l0 103.007c0,29.1497 -16.128,54.6002 -39.9273,67.9065 1.01103,34.9832 17.5288,43.3206 49.0076,45.5576 7.1327,-6.36734 13.8461,-13.1859 19.9985,-20.4886 1.86497,-2.21221 4.89923,-3.04962 7.63349,-2.10591l155.65 53.6695c4.61222,1.59095 6.2197,7.32286 3.10513,11.0788 -0.844491,1.01929 -20.9552,25.0028 -64.1423,52.695 0.124016,3.1382 0.187796,6.37915 0.187796,9.68153l0 106.06c-0.00118111,3.86458 -3.13347,6.99687 -6.99805,6.99687l-431.991 0c-3.86458,0 -6.99805,-3.13229 -6.99805,-6.99687l0 -106.06c0,-44.6198 11.517,-73.792 35.2064,-89.1865 51.3616,-33.3757 133.698,11.3622 136.329,-56.1781 -29.2135,-11.1933 -50.0116,-39.5257 -50.0116,-72.6286l0 -71.8136zm13.9949 -28.0631c5.68112,-7.23427 13.2709,-13.9004 23.0398,-16.7599 14.3445,-4.19883 29.8808,0.56575 46.1942,14.1591 13.8036,6.56104 29.2324,0.394489 44.1639,-5.57246 18.3674,-7.34057 37.2863,-14.4497 51.4903,2.05158 -1.56733,-33.769 -29.5288,-60.7608 -63.6793,-60.7608l-37.4576 0c-35.1533,0 -63.7514,28.5993 -63.7514,63.7514l0 3.13111zm101.208 177.623c-12.7075,0 -39.9663,0.827955 -51.4029,-1.25552 -3.64017,48.2942 -40.4647,50.4309 -78.938,51.5151 -47.5135,1.33701 -92.3908,2.6008 -92.3908,89.9885l0 99.0629 58.4199 0 -0.00118111 -106.126c0,-3.67678 2.84647,-6.7264 6.51498,-6.98034 56.6695,-3.86458 162.489,-27.5245 229.537,-78.1172 -28.4776,-4.75631 -44.9151,-19.702 -47.5868,-51.932 -7.60632,2.49213 -15.7241,3.8445 -24.1524,3.8445zm-150.317 239.311l273.169 0 0 -65.673c-34.3702,13.1445 -75.7573,24.8493 -124.31,31.8816 -9.0768,1.3193 -11.1603,-12.5221 -2.0067,-13.8496 102.857,-14.9174 200.444,-57.1608 258.78,-115.177l-46.7671 -16.1268c-43.8946,47.2431 -121.555,88.0396 -199.048,109.075 -49.5545,13.4528 -103.289,20.8146 -159.817,21.9072l0 47.9624zm287.163 0l58.4187 0 -0.00354332 -100.264c-15.9886,9.40042 -35.4438,19.4516 -58.4151,29.008l0 71.2561zm-42.5281 -191.546c-0.272835,0.281103 -0.569293,0.538584 -0.885829,0.770081 -44.0576,38.1296 -101.85,60.1915 -145.958,72.4455 -45.0344,12.5115 -83.0341,17.1615 -97.792,18.6166l0 37.7564c149.715,-2.95749 275.267,-53.5124 344.223,-122.033l-79.5298 -27.4241c-6.24451,7.06183 -12.9709,13.6737 -20.0575,19.8686zm-123.863 102.058c-7.48349,0 -9.73349,-10.3217 -2.85237,-13.3902l80.7392 -35.9989c8.38231,-3.73348 14.0776,9.04491 5.69884,12.7819 -9.39806,4.19175 -80.0164,36.6072 -83.5857,36.6072zm107.951 -48.1313c-7.48585,0 -9.73231,-10.3217 -2.85237,-13.389l28.7647 -12.8256c8.38231,-3.73229 14.0811,9.04491 5.69884,12.7819 -4.64175,2.0693 -28.5036,13.4327 -31.6111,13.4327z"/>
  <path class="fil1" d="M359.803 432.236c-34.3702,13.1445 -75.7573,24.8493 -124.31,31.8816 -9.0768,1.3193 -11.1603,-12.5221 -2.0067,-13.8496 102.857,-14.9174 200.444,-57.1608 258.78,-115.177l-46.7671 -16.1268c-43.8946,47.2431 -121.555,88.0396 -199.048,109.075 -49.5545,13.4528 -103.289,20.8146 -159.817,21.9072l0 47.9624 273.169 0 0 -65.673z"/>
  <path class="fil1" d="M86.6341 435.952c149.715,-2.95749 275.267,-53.5124 344.223,-122.033l-79.5298 -27.4241c-6.24451,7.06183 -12.9709,13.6737 -20.0575,19.8686 -0.272835,0.281103 -0.569293,0.538584 -0.885829,0.770081 -44.0576,38.1296 -101.85,60.1915 -145.958,72.4455 -45.0344,12.5115 -83.0341,17.1615 -97.792,18.6166l0 37.7564zm204.359 -64.1376c-9.39806,4.19175 -80.0164,36.6072 -83.5857,36.6072 -7.48349,0 -9.73349,-10.3217 -2.85237,-13.3902l80.7392 -35.9989c8.38231,-3.73348 14.0776,9.04491 5.69884,12.7819zm24.365 -11.5241c-7.48585,0 -9.73231,-10.3217 -2.85237,-13.389l28.7647 -12.8256c8.38231,-3.73229 14.0811,9.04491 5.69884,12.7819 -4.64175,2.0693 -28.5036,13.4327 -31.6111,13.4327z"/>
  <path class="fil2" d="M79.153 384.803c56.6695,-3.86458 162.489,-27.5245 229.537,-78.1172 -28.4776,-4.75631 -44.9151,-19.702 -47.5868,-51.932 -7.60632,2.49213 -15.7241,3.8445 -24.1524,3.8445 -12.7075,0 -39.9663,0.827955 -51.4029,-1.25552 -3.64017,48.2942 -40.4647,50.4309 -78.938,51.5151 -47.5135,1.33701 -92.3908,2.6008 -92.3908,89.9885l0 99.0629 58.4199 0 -0.00118111 -106.126c0,-3.67678 2.84647,-6.7264 6.51498,-6.98034z"/>
  <path class="fil2" d="M199.495 244.602l37.4576 0c34.6099,0 63.7514,-28.0725 63.7514,-63.7514l0 -69.7644c-8.17089,-39.1442 -20.1095,-35.7816 -46.3702,-25.2887 -17.2288,6.88349 -36.7537,14.6871 -56.3766,4.71852 -5.43663,-2.76024 -18.7642,-17.693 -35.2418,-12.8705 -14.7544,4.32049 -24.1513,23.9847 -26.9717,32.3836l0 70.8215c0,35.7438 29.1922,63.7514 63.7514,63.7514z"/>
  <path class="fil2" d="M373.798 426.653l0 71.2561 58.4187 0 -0.00354332 -100.264c-15.9886,9.40042 -35.4438,19.4516 -58.4151,29.008z"/>
  <path class="fil1" d="M204.977 78.3747c13.8036,6.56104 29.2324,0.394489 44.1639,-5.57246 18.3674,-7.34057 37.2863,-14.4497 51.4903,2.05158 -1.56733,-33.769 -29.5288,-60.7608 -63.6793,-60.7608l-37.4576 0c-35.1533,0 -63.7514,28.5993 -63.7514,63.7514l0 3.13111c5.68112,-7.23427 13.2709,-13.9004 23.0398,-16.7599 14.3445,-4.19883 29.8808,0.56575 46.1942,14.1591z"/>
 </g>
</svg>
